<svg id="Capa_1" data-name="Capa 1" xmlns="http://www.w3.org/2000/svg" viewBox="0 0 746.02 153.37"><path d="M714.19,66c0-8.22,7.09-14.86,15.92-14.86S746,57.75,746,66s-7.18,14.77-15.91,14.77S714.19,74.07,714.19,66m2.63,0c0,6.71,5.91,12.3,13.2,12.3s13.26-5.59,13.26-12.3S737.38,53.66,730,53.66s-13.2,5.51-13.2,12.31m20.56,8h-3.62l-2.39-5.61c-.27-.53-.27-.61-1.09-.61h-2.81v6.22h-3.09V57.83c2.44-.16,4.17-.24,5.9-.24,3.48,0,6.64,1,6.64,5.06a4.49,4.49,0,0,1-2.72,4.26c1.29,2.29,3.1,6.82,3.18,7m-9.91-13.47V65h3.08c1.92,0,3.28-.53,3.28-2.1,0-2-1.18-2.52-3.45-2.52-1,0-1.92,0-2.91.08" style="fill:#5a5a5a"/><rect x="532.1" y="23.75" width="19.4" height="99.59" style="fill:#b2cb27"/><path d="M487.73,66.35c-8.31,0-13.72,3.19-13.72,11.92V93.64c0,9.58,3.05,15.66,13.44,15.66,13,0,14.83-11.63,14.83-22.3,0-11-1.53-20.65-14.55-20.65m4.16,57.37c-8.18,0-12.62-1.93-17.19-8.45h-.27v35.22H454.89V52.64h16.49l1.25,8.18h.27c5-7.2,11.09-9.71,19.68-9.71,21.2,0,29.51,16.62,29.51,35.62,0,19.81-8.18,37-30.2,37" style="fill:#4fa6d1"/><path d="M674.43,125c-9.15,23.13-13.57,28.4-30.48,28.4a88,88,0,0,1-10.54-.69V136.47a65.86,65.86,0,0,0,7.76.41c7.48,0,9.29-1.94,11.78-8.17l3.19-7.9L628.85,52.64H650l16.08,48.07h.28l15.65-48.07H703Z" style="fill:#d64437"/><path d="M624.54,105.83v-3s0,0,0,0V79.11c0-20-7.63-28-28-28-12.32,0-22.45,2.78-33.39,8.31l6.09,13.31c7.77-4.3,16.5-7.2,25.5-7.2,7.07,0,10.26,2.07,10.26,8.59v3.31c-17.32-.13-43.51,2.23-43.51,25.23,0,13.44,9.29,21.2,22.45,21.2a36.76,36.76,0,0,0,23.14-8.22,6.13,6.13,0,0,0,.18,1c2.11,6.7,13.63,7.17,22.33,6.7l.7-14.81c-3.64-.11-5.76-.58-5.76-2.7m-19.11-.67c-4.71,3.32-9.85,5.53-15.8,5.53-5.68,0-9.15-3.6-9.15-9.42,0-12.6,15.8-12.75,24.95-12.75Z" style="fill:#efab00"/><path d="M253.63,66.49c-12.19,0-15.94,7.35-15.94,20.93,0,13.85,3.88,21.48,16.08,21.48,11.92,0,15.79-7.49,15.79-21.48,0-13.58-3.74-20.93-15.93-20.93m0,57.23c-24.1,0-35.75-14.7-35.75-36.3,0-20.23,10.4-36.31,35.75-36.31,23.42,0,35.61,13.86,35.61,36.31,0,21.48-11.37,36.3-35.61,36.3" style="fill:#5a5a5a"/><polygon points="156.08 29.77 156.08 47.09 182.12 47.09 182.12 123.34 202.63 123.34 202.63 47.09 228.67 47.09 228.67 29.77 156.08 29.77" style="fill:#5a5a5a"/><path d="M334.9,107.27c-10,.25-10.94-1-11-7v-32H340V52.64H323.89V34.21H304.62V52.64h-11.5V68.29h11.37v33.12c0,16.76,4.57,22,23.42,22a119.37,119.37,0,0,0,12-1V106.93c-1.45.14-2.64.28-5.06.34" style="fill:#5a5a5a"/><rect x="424.53" y="23.75" width="19.4" height="99.59" style="fill:#5a5a5a"/><path d="M410.94,105.83v-3s0,0,0,0V79.11c0-20-7.63-28-28-28-12.32,0-22.45,2.78-33.39,8.31l6.09,13.31c7.77-4.3,16.5-7.2,25.5-7.2,7.07,0,10.26,2.07,10.26,8.59v3.31c-17.32-.13-43.51,2.23-43.51,25.23,0,13.44,9.29,21.2,22.45,21.2a36.76,36.76,0,0,0,23.14-8.22,6.13,6.13,0,0,0,.18,1c2.11,6.7,13.63,7.17,22.33,6.7l.7-14.81c-3.64-.11-5.76-.58-5.76-2.7m-19.11-.67c-4.71,3.32-9.85,5.53-15.8,5.53-5.68,0-9.15-3.6-9.15-9.42,0-12.6,15.8-12.75,24.95-12.75Z" style="fill:#5a5a5a"/><path d="M40,26.59c2.7-1.56,2.7-4.11,0-5.67L4.91.67C2.21-.89,0,.38,0,3.5V44c0,3.11,2.21,4.39,4.91,2.83Z" style="fill:#efab00"/><path d="M40,78.43c2.7-1.56,2.7-4.11,0-5.67L4.91,52.51C2.21,51,0,52.23,0,55.35v40.5c0,3.12,2.21,4.4,4.91,2.84Z" style="fill:#7d54a5"/><path d="M40,130.28c2.7-1.56,2.7-4.11,0-5.67L4.91,104.36C2.21,102.8,0,104.07,0,107.19V147.7c0,3.12,2.21,4.39,4.91,2.83Z" style="fill:#d44384"/><path d="M40,130.28c2.7-1.56,2.7-4.11,0-5.67L4.91,104.36C2.21,102.8,0,104.07,0,107.19V147.7c0,3.12,2.21,4.39,4.91,2.83Z" style="fill:#d44384"/><path d="M44.9,69.93c0,3.12,2.21,4.39,4.91,2.83L84.89,52.51c2.7-1.56,2.7-4.11,0-5.67L49.81,26.59c-2.7-1.56-4.91-.29-4.91,2.83Z" style="fill:#4fa6d1"/><path d="M44.9,121.77c0,3.12,2.21,4.4,4.91,2.84l35.08-20.25c2.7-1.56,2.7-4.11,0-5.67L49.81,78.43c-2.7-1.55-4.91-.28-4.91,2.84Z" style="fill:#b2cb27"/><path d="M89.8,95.85c0,3.12,2.21,4.4,4.91,2.84l35.08-20.26c2.7-1.56,2.7-4.11,0-5.67L94.71,52.51C92,51,89.8,52.23,89.8,55.35Z" style="fill:#d64437"/></svg>